<?xml version="1.0" encoding="utf-8"?>
<!-- Generator: Adobe Illustrator 16.0.0, SVG Export Plug-In . SVG Version: 6.00 Build 0)  -->
<!DOCTYPE svg PUBLIC "-//W3C//DTD SVG 1.1//EN" "http://www.w3.org/Graphics/SVG/1.1/DTD/svg11.dtd">
<svg version="1.1" id="Calque_1" xmlns="http://www.w3.org/2000/svg" xmlns:xlink="http://www.w3.org/1999/xlink" x="0px" y="0px"
	 width="512px" height="512px" viewBox="0 0 512 512" enable-background="new 0 0 512 512" xml:space="preserve">
<path id="link-icon" fill="#FFFFFF" d="M134.915,187.649c9.152-9.149,19.299-16.694,30.09-22.645
	c60.141-33.152,137.278-15.521,175.935,43.104l-46.779,46.78c-13.422-30.616-46.724-48.016-79.871-40.602
	c-12.478,2.791-24.337,9.013-34.028,18.705l-89.682,89.679c-27.225,27.225-27.223,71.523,0.002,98.749
	c27.225,27.225,71.523,27.225,98.748,0l27.646-27.646c25.133,9.972,52.11,13.966,78.716,11.97l-61.019,61.019
	c-52.312,52.312-137.125,52.312-189.437,0C-7.076,414.45-7.077,329.638,45.235,277.325L134.915,187.649z M277.328,45.236
	l-61.018,61.017c26.612-1.993,53.583,2.001,78.717,11.973l27.645-27.646c27.227-27.227,71.524-27.227,98.751,0
	s27.227,71.524,0,98.75l-89.682,89.68c-27.308,27.307-71.677,27.075-98.748,0c-6.313-6.313-11.764-14.174-15.15-21.895
	l-46.779,46.779c4.914,7.453,10.025,13.897,16.585,20.458c16.928,16.93,38.468,29.537,63.249,35.499
	c32.12,7.729,66.534,3.444,96.098-12.854c10.792-5.95,20.938-13.493,30.091-22.645l89.679-89.678
	c52.313-52.313,52.313-137.125,0.001-189.438C414.454-7.077,329.641-7.077,277.328,45.236z"/>
</svg>
