<?xml version="1.0" encoding="utf-8"?>
<!-- Generator: Adobe Illustrator 16.0.0, SVG Export Plug-In . SVG Version: 6.00 Build 0)  -->
<!DOCTYPE svg PUBLIC "-//W3C//DTD SVG 1.1//EN" "http://www.w3.org/Graphics/SVG/1.1/DTD/svg11.dtd">
<svg version="1.1" id="Layer_1" xmlns="http://www.w3.org/2000/svg" xmlns:xlink="http://www.w3.org/1999/xlink" x="0px" y="0px"
	 width="100px" height="100px" viewBox="0 0 100 100" enable-background="new 0 0 100 100" xml:space="preserve">
<g>
	<g>
		<path fill="#FFFFFF" d="M43.877,65.718c-0.886-0.859-1.92-1.529-3.101-2.012c-1.182-0.481-2.432-0.723-3.753-0.723
			s-2.572,0.241-3.752,0.723c-1.182,0.482-2.215,1.152-3.101,2.012c-0.886,0.86-1.599,1.524-2.137,2.728
			C27.495,69.649,27.173,71,27.069,72h20.014c-0.105-1-0.444-2.395-1.017-3.58C45.493,67.232,44.764,66.578,43.877,65.718z"/>
		<path fill="#FFFFFF" d="M65.828,23.442c-0.905-1.046-2.02-1.945-3.34-2.506C61.166,20.375,59.676,20,58.015,20H53v25h5.015
			c1.698,0,3.208-0.875,4.53-1.473c1.32-0.598,2.425-1.718,3.313-2.783c0.886-1.065,1.566-2.461,2.039-3.9
			c0.471-1.438,0.707-3.089,0.707-4.809c0-1.757-0.236-3.391-0.707-4.829C67.424,25.768,66.734,24.488,65.828,23.442z"/>
		<path fill="#FFFFFF" d="M65.637,73.871c-2.537,0-4.596,0.508-6.176,1.521c-1.582,1.016-2.372,2.417-2.372,4.206
			c0,0.723,0.139,1.428,0.418,2.115c0.277,0.688,0.703,1.308,1.276,1.858c0.573,0.552,1.276,0.998,2.11,1.341
			c0.834,0.346,1.824,0.517,2.971,0.517c1.563,0,3.118-0.335,4.664-1.006c1.547-0.672,2.771-1.591,3.676-2.761
			c0.242-0.31,0.407-0.646,0.579-1.007C72.957,80.296,73,79.96,73,79.65v-4.387c-2-0.446-2.371-0.791-3.656-1.031
			S66.853,73.871,65.637,73.871z"/>
		<path fill="#FFFFFF" d="M0,0v100h100V0H0z M27,12h8v40h-8V12z M50.444,74.643C50.426,74.92,50.4,75,50.367,75H27.173
			c0.104,2,0.443,2.988,1.017,4.209c0.573,1.221,1.303,2.386,2.188,3.279c0.887,0.896,1.911,1.644,3.075,2.142
			c1.164,0.499,2.406,0.772,3.727,0.772c0.904,0,1.79-0.105,2.658-0.347c0.868-0.24,1.667-0.561,2.397-0.975
			c0.729-0.412,1.381-0.916,1.954-1.518c0.574-0.602,1.017-1.264,1.329-1.985l3.075,0.826c-0.417,0.997-1.008,1.902-1.772,2.71
			c-0.764,0.809-1.65,1.514-2.658,2.116c-1.007,0.602-2.119,1.066-3.335,1.393c-1.216,0.326-2.467,0.49-3.752,0.49
			c-1.98,0-3.805-0.369-5.473-1.109c-1.667-0.739-3.109-1.755-4.326-3.045c-1.216-1.29-2.162-2.777-2.84-4.464
			c-0.677-1.686-1.016-3.49-1.016-5.418c0-1.892,0.339-3.672,1.016-5.341c0.678-1.668,1.624-3.13,2.84-4.386
			c1.217-1.256,2.649-2.254,4.301-2.993c1.649-0.739,3.466-1.109,5.446-1.109c1.981,0,3.796,0.37,5.447,1.109
			c1.649,0.739,3.065,1.746,4.248,3.02c1.181,1.272,2.102,2.734,2.762,4.385c0.659,1.651,0.99,3.303,0.99,5.161
			C50.47,74.198,50.461,74.367,50.444,74.643z M78,87.598c0,0.034-0.597,0.059-0.84,0.077c-0.243,0.018-0.48,0.025-0.653,0.025
			c-0.696,0-1.345-0.206-1.917-0.619c-0.572-0.412-0.901-1.031-0.971-1.857l-0.109-2.116c-1.182,1.584-2.738,2.813-4.666,3.689
			c-1.929,0.878-3.884,1.316-5.864,1.316c-1.391,0-2.658-0.216-3.804-0.646c-1.147-0.43-2.131-1.022-2.945-1.78
			c-0.817-0.756-1.452-1.633-1.903-2.631c-0.453-0.998-0.678-2.047-0.678-3.148c0-1.238,0.277-2.364,0.834-3.38
			c0.555-1.014,1.337-1.883,2.346-2.605c1.006-0.723,2.214-1.281,3.622-1.678c1.407-0.396,2.962-0.594,4.665-0.594
			c1.354,0,2.7,0.122,4.125,0.362C70.666,72.255,71,72.6,73,73.046V70.62c0-2.374-0.641-4.257-2.014-5.65s-3.2-2.09-5.527-2.09
			c-1.459,0-2.901,0.274-4.342,0.826c-1.442,0.55-2.905,1.34-4.398,2.372l-1.248-2.321c1.773-1.169,3.493-2.047,5.161-2.632
			c1.667-0.585,3.405-0.877,5.212-0.877c3.301,0,6.108,0.946,8.055,2.838C75.845,64.979,77,67.593,77,70.93v12.127
			c0,0.964,0,1.444,1,1.444V87.598z M76.645,40.176c-0.945,2.448-2.294,4.541-4.05,6.279c-1.755,1.738-3.87,3.123-6.342,4.074
			C63.779,51.482,61.034,52,58.015,52H43V12h15.015c3.321,0,6.229,0.582,8.72,1.627c2.492,1.049,4.577,2.498,6.258,4.292
			c1.679,1.793,2.943,3.91,3.793,6.321c0.849,2.411,1.274,4.988,1.274,7.716C78.06,34.983,77.586,37.729,76.645,40.176z"/>
	</g>
</g>
<g>
	
		<image overflow="visible" opacity="0.5" width="542" height="542" xlink:href="A8B01CF.png"  transform="matrix(0.24 0 0 0.24 -15 -15)">
	</image>
	<g>
		<g>
			<path fill="#FFFFFF" d="M43.877,65.718c-0.886-0.859-1.92-1.529-3.101-2.012c-1.182-0.481-2.432-0.723-3.753-0.723
				s-2.572,0.241-3.752,0.723c-1.182,0.482-2.215,1.152-3.101,2.012c-0.886,0.86-1.599,1.524-2.137,2.728
				C27.495,69.649,27.173,71,27.069,72h20.014c-0.105-1-0.444-2.395-1.017-3.58C45.493,67.232,44.764,66.578,43.877,65.718z"/>
			<path fill="#FFFFFF" d="M65.828,23.442c-0.905-1.046-2.02-1.945-3.34-2.506C61.166,20.375,59.676,20,58.015,20H53v25h5.015
				c1.698,0,3.208-0.875,4.53-1.473c1.32-0.598,2.425-1.718,3.313-2.783c0.886-1.065,1.566-2.461,2.039-3.9
				c0.471-1.438,0.707-3.089,0.707-4.809c0-1.757-0.236-3.391-0.707-4.829C67.424,25.768,66.734,24.488,65.828,23.442z"/>
			<path fill="#FFFFFF" d="M65.637,73.871c-2.537,0-4.596,0.508-6.176,1.521c-1.582,1.016-2.372,2.417-2.372,4.206
				c0,0.723,0.139,1.428,0.418,2.115c0.277,0.688,0.703,1.308,1.276,1.858c0.573,0.552,1.276,0.998,2.11,1.341
				c0.834,0.346,1.824,0.517,2.971,0.517c1.563,0,3.118-0.335,4.664-1.006c1.547-0.672,2.771-1.591,3.676-2.761
				c0.242-0.31,0.407-0.646,0.579-1.007C72.957,80.296,73,79.96,73,79.65v-4.387c-2-0.446-2.371-0.791-3.656-1.031
				S66.853,73.871,65.637,73.871z"/>
			<path fill="#FFFFFF" d="M0,0v100h100V0H0z M27,12h8v40h-8V12z M50.444,74.643C50.426,74.92,50.4,75,50.367,75H27.173
				c0.104,2,0.443,2.988,1.017,4.209c0.573,1.221,1.303,2.386,2.188,3.279c0.887,0.896,1.911,1.644,3.075,2.142
				c1.164,0.499,2.406,0.772,3.727,0.772c0.904,0,1.79-0.105,2.658-0.347c0.868-0.24,1.667-0.561,2.397-0.975
				c0.729-0.412,1.381-0.916,1.954-1.518c0.574-0.602,1.017-1.264,1.329-1.985l3.075,0.826c-0.417,0.997-1.008,1.902-1.772,2.71
				c-0.764,0.809-1.65,1.514-2.658,2.116c-1.007,0.602-2.119,1.066-3.335,1.393c-1.216,0.326-2.467,0.49-3.752,0.49
				c-1.98,0-3.805-0.369-5.473-1.109c-1.667-0.739-3.109-1.755-4.326-3.045c-1.216-1.29-2.162-2.777-2.84-4.464
				c-0.677-1.686-1.016-3.49-1.016-5.418c0-1.892,0.339-3.672,1.016-5.341c0.678-1.668,1.624-3.13,2.84-4.386
				c1.217-1.256,2.649-2.254,4.301-2.993c1.649-0.739,3.466-1.109,5.446-1.109c1.981,0,3.796,0.37,5.447,1.109
				c1.649,0.739,3.065,1.746,4.248,3.02c1.181,1.272,2.102,2.734,2.762,4.385c0.659,1.651,0.99,3.303,0.99,5.161
				C50.47,74.198,50.461,74.367,50.444,74.643z M78,87.598c0,0.034-0.597,0.059-0.84,0.077c-0.243,0.018-0.48,0.025-0.653,0.025
				c-0.696,0-1.345-0.206-1.917-0.619c-0.572-0.412-0.901-1.031-0.971-1.857l-0.109-2.116c-1.182,1.584-2.738,2.813-4.666,3.689
				c-1.929,0.878-3.884,1.316-5.864,1.316c-1.391,0-2.658-0.216-3.804-0.646c-1.147-0.43-2.131-1.022-2.945-1.78
				c-0.817-0.756-1.452-1.633-1.903-2.631c-0.453-0.998-0.678-2.047-0.678-3.148c0-1.238,0.277-2.364,0.834-3.38
				c0.555-1.014,1.337-1.883,2.346-2.605c1.006-0.723,2.214-1.281,3.622-1.678c1.407-0.396,2.962-0.594,4.665-0.594
				c1.354,0,2.7,0.122,4.125,0.362C70.666,72.255,71,72.6,73,73.046V70.62c0-2.374-0.641-4.257-2.014-5.65s-3.2-2.09-5.527-2.09
				c-1.459,0-2.901,0.274-4.342,0.826c-1.442,0.55-2.905,1.34-4.398,2.372l-1.248-2.321c1.773-1.169,3.493-2.047,5.161-2.632
				c1.667-0.585,3.405-0.877,5.212-0.877c3.301,0,6.108,0.946,8.055,2.838C75.845,64.979,77,67.593,77,70.93v12.127
				c0,0.964,0,1.444,1,1.444V87.598z M76.645,40.176c-0.945,2.448-2.294,4.541-4.05,6.279c-1.755,1.738-3.87,3.123-6.342,4.074
				C63.779,51.482,61.034,52,58.015,52H43V12h15.015c3.321,0,6.229,0.582,8.72,1.627c2.492,1.049,4.577,2.498,6.258,4.292
				c1.679,1.793,2.943,3.91,3.793,6.321c0.849,2.411,1.274,4.988,1.274,7.716C78.06,34.983,77.586,37.729,76.645,40.176z"/>
		</g>
	</g>
</g>
</svg>
