<?xml version="1.0" encoding="utf-8"?>
<!-- Generator: Adobe Illustrator 16.0.0, SVG Export Plug-In . SVG Version: 6.00 Build 0)  -->
<!DOCTYPE svg PUBLIC "-//W3C//DTD SVG 1.1//EN" "http://www.w3.org/Graphics/SVG/1.1/DTD/svg11.dtd">
<svg version="1.1" id="Calque_1" xmlns="http://www.w3.org/2000/svg" xmlns:xlink="http://www.w3.org/1999/xlink" x="0px" y="0px"
	 width="512px" height="512px" viewBox="0 0 512 512" enable-background="new 0 0 512 512" xml:space="preserve">
<path id="time-3-icon" fill="#333333" d="M256,3C116.271,3,3,116.271,3,256c0,139.727,113.271,253,253,253
	c139.727,0,253-113.273,253-253C509,116.271,395.727,3,256,3z M256,453.733c-109.277,0-197.733-88.438-197.733-197.732
	c0-109.28,88.437-197.733,197.733-197.733c109.277,0,197.732,88.436,197.732,197.733C453.732,365.278,365.296,453.733,256,453.733z
	 M411.751,268.019c2.101,0.363,3.636,2.186,3.636,4.318v0.114c0,2.114-1.502,3.917-3.578,4.305
	c-45.558,8.521-153.483,26.223-165.327,26.223c-16.958,0-30.704-13.746-30.704-30.705c0-12.074,18.164-128.556,26.55-175.725
	c0.336-1.894,1.983-3.278,3.907-3.278h0.01c2.099,0,3.886,1.527,4.214,3.601l23.252,147.261L411.751,268.019z"/>
</svg>
